<?xml version="1.0" encoding="UTF-8"?>
<svg width="700pt" height="700pt" version="1.1" viewBox="0 0 700 700" xmlns="http://www.w3.org/2000/svg" xmlns:xlink="http://www.w3.org/1999/xlink">
 <defs>
  <symbol id="t" overflow="visible">
   <path d="m0.1875-0.015625c-0.011719 0.011719-0.023438 0.015625-0.03125 0.015625h-0.03125c-0.03125 0-0.058594-0.0039062-0.078125-0.015625-0.023438-0.019531-0.03125-0.046875-0.03125-0.078125 0-0.039062 0.0078125-0.066406 0.03125-0.078125 0.019531-0.019531 0.046875-0.03125 0.078125-0.03125h0.03125c0.007812 0 0.019531 0.007813 0.03125 0.015625v0.03125h-0.03125c-0.011719-0.007812-0.023438-0.015625-0.03125-0.015625-0.023438 0-0.039062 0.007813-0.046875 0.015625-0.011719 0.011719-0.015625 0.03125-0.015625 0.0625 0 0.023438 0.0039062 0.039062 0.015625 0.046875 0.0078125 0.011719 0.023437 0.015625 0.046875 0.015625h0.03125c0.007812-0.0078125 0.019531-0.015625 0.03125-0.015625z"/>
  </symbol>
  <symbol id="c" overflow="visible">
   <path d="m0.14062-0.10938h-0.015625c0-0.007813-0.007812-0.015625-0.015625-0.015625-0.011719 0-0.023438 0.007812-0.03125 0.015625v0.046875 0.0625h-0.0625v-0.15625h0.0625v0.03125c0-0.007812 0.0039062-0.015625 0.015625-0.015625 0.007812-0.007813 0.019531-0.015625 0.03125-0.015625h0.015625z"/>
  </symbol>
  <symbol id="b" overflow="visible">
   <path d="m0.17188-0.078125v0.015625h-0.10938v0.03125h0.046875 0.03125c0.007813-0.0078125 0.019531-0.015625 0.03125-0.015625v0.03125c-0.011719 0.011719-0.023437 0.015625-0.03125 0.015625h-0.046875c-0.023438 0-0.042969-0.0039062-0.0625-0.015625-0.011719-0.019531-0.015625-0.039062-0.015625-0.0625 0-0.019531 0.0039062-0.035156 0.015625-0.046875 0.019531-0.019531 0.039062-0.03125 0.0625-0.03125 0.019531 0 0.035156 0.011719 0.046875 0.03125 0.019531 0.011719 0.03125 0.027344 0.03125 0.046875zm-0.046875-0.015625c0-0.007812-0.007812-0.015625-0.015625-0.015625 0-0.007813-0.007813-0.015625-0.015625-0.015625-0.011719 0-0.023438 0.007812-0.03125 0.015625v0.015625z"/>
  </symbol>
  <symbol id="f" overflow="visible">
   <path d="m0.09375-0.0625h-0.03125v0.015625 0.015625h0.015625 0.03125c0.007813-0.0078125 0.015625-0.019531 0.015625-0.03125zm0.078125-0.03125v0.09375h-0.046875v-0.015625c-0.011719 0-0.023438 0.0078125-0.03125 0.015625h-0.03125-0.03125c-0.011719-0.0078125-0.015625-0.023438-0.015625-0.046875 0-0.019531 0.0039062-0.03125 0.015625-0.03125 0.0078125-0.0078125 0.03125-0.015625 0.0625-0.015625h0.03125c0-0.007812-0.007812-0.015625-0.015625-0.015625-0.011719-0.007813-0.023438-0.015625-0.03125-0.015625h-0.03125c-0.011719 0-0.015625 0.007812-0.015625 0.015625v-0.046875h0.03125 0.03125c0.019531 0 0.035156 0.007812 0.046875 0.015625 0.019531 0.011719 0.03125 0.027344 0.03125 0.046875z"/>
  </symbol>
  <symbol id="d" overflow="visible">
   <path d="m0.078125-0.20312v0.046875h0.046875v0.03125h-0.046875v0.078125 0.015625h0.015625 0.03125v0.03125h-0.046875c-0.023438 0-0.039062-0.0039062-0.046875-0.015625v-0.03125-0.078125h-0.03125v-0.03125h0.03125v-0.046875z"/>
  </symbol>
  <symbol id="i" overflow="visible">
   <path d="m0.125-0.125v-0.09375h0.046875v0.21875h-0.046875v-0.015625s-0.007812 0.0078125-0.015625 0.015625h-0.03125c-0.023438 0-0.039062-0.0039062-0.046875-0.015625-0.011719-0.019531-0.015625-0.039062-0.015625-0.0625 0-0.019531 0.0039062-0.035156 0.015625-0.046875 0.0078125-0.019531 0.023438-0.03125 0.046875-0.03125 0.0078125 0 0.019531 0.007812 0.03125 0.015625 0.007813 0 0.015625 0.007813 0.015625 0.015625zm-0.03125 0.09375h0.015625c0.007813-0.0078125 0.015625-0.023438 0.015625-0.046875 0-0.0078125-0.007812-0.019531-0.015625-0.03125 0-0.007813-0.007813-0.015625-0.015625-0.015625-0.011719 0-0.023438 0.007812-0.03125 0.015625v0.03125 0.046875h0.03125z"/>
  </symbol>
  <symbol id="e" overflow="visible">
   <path d="m0.10938-0.03125h0.015625c0.007812-0.0078125 0.015625-0.023438 0.015625-0.046875 0-0.0078125-0.007813-0.019531-0.015625-0.03125 0-0.007813-0.007812-0.015625-0.015625-0.015625-0.011719 0-0.023438 0.007812-0.03125 0.015625v0.03125 0.03125c0.0078125 0.011719 0.019531 0.015625 0.03125 0.015625zm-0.03125-0.09375c0-0.007812 0.0039062-0.015625 0.015625-0.015625 0.007812-0.007813 0.019531-0.015625 0.03125-0.015625 0.019531 0 0.035156 0.011719 0.046875 0.03125 0.007813 0.011719 0.015625 0.027344 0.015625 0.046875 0 0.023438-0.007812 0.042969-0.015625 0.0625-0.011719 0.011719-0.027344 0.015625-0.046875 0.015625h-0.03125c-0.011719-0.0078125-0.015625-0.015625-0.015625-0.015625v0.015625h-0.0625v-0.21875h0.0625z"/>
  </symbol>
  <symbol id="h" overflow="visible">
   <path d="m0-0.15625h0.046875l0.046875 0.10938 0.03125-0.10938h0.046875l-0.0625 0.17188c0 0.019531-0.007813 0.03125-0.015625 0.03125-0.011719 0.0078125-0.023438 0.015625-0.03125 0.015625h-0.03125v-0.03125h0.015625c0.0078125 0 0.015625-0.0078125 0.015625-0.015625v-0.015625z"/>
  </symbol>
  <symbol id="g" overflow="visible">
   <path d="m0.078125-0.015625v0.078125h-0.0625v-0.21875h0.0625v0.03125c0-0.007812 0.0039062-0.015625 0.015625-0.015625 0.007812-0.007813 0.019531-0.015625 0.03125-0.015625 0.019531 0 0.035156 0.011719 0.046875 0.03125 0.007813 0.011719 0.015625 0.027344 0.015625 0.046875 0 0.023438-0.007812 0.042969-0.015625 0.0625-0.011719 0.011719-0.027344 0.015625-0.046875 0.015625h-0.03125c-0.011719-0.0078125-0.015625-0.015625-0.015625-0.015625zm0.03125-0.10938c-0.011719 0-0.023438 0.007812-0.03125 0.015625v0.03125 0.03125c0.0078125 0.011719 0.019531 0.015625 0.03125 0.015625h0.015625c0.007812-0.0078125 0.015625-0.023438 0.015625-0.046875 0-0.0078125-0.007813-0.019531-0.015625-0.03125 0-0.007813-0.007812-0.015625-0.015625-0.015625z"/>
  </symbol>
  <symbol id="a" overflow="visible">
   <path d="m0.09375-0.125c-0.011719 0-0.023438 0.007812-0.03125 0.015625v0.03125 0.046875h0.03125 0.015625c0.007813-0.0078125 0.015625-0.023438 0.015625-0.046875 0-0.0078125-0.007812-0.019531-0.015625-0.03125 0-0.007813-0.007813-0.015625-0.015625-0.015625zm0-0.03125c0.03125 0 0.050781 0.011719 0.0625 0.03125 0.007812 0.011719 0.015625 0.027344 0.015625 0.046875 0 0.023438-0.007813 0.042969-0.015625 0.0625-0.011719 0.011719-0.03125 0.015625-0.0625 0.015625-0.023438 0-0.042969-0.0039062-0.0625-0.015625-0.011719-0.019531-0.015625-0.039062-0.015625-0.0625 0-0.019531 0.0039062-0.035156 0.015625-0.046875 0.019531-0.019531 0.039062-0.03125 0.0625-0.03125z"/>
  </symbol>
  <symbol id="s" overflow="visible">
   <path d="m0.015625-0.15625h0.046875l0.015625 0.10938 0.03125-0.10938h0.046875l0.015625 0.10938 0.03125-0.10938h0.046875l-0.046875 0.15625h-0.046875l-0.03125-0.10938-0.015625 0.10938h-0.0625z"/>
  </symbol>
  <symbol id="r" overflow="visible">
   <path d="m0.125-0.21875v0.046875h-0.03125-0.015625v0.015625h0.046875v0.03125h-0.046875v0.125h-0.046875v-0.125h-0.03125v-0.03125h0.03125c0-0.019531 0.0039062-0.035156 0.015625-0.046875 0.0078125-0.007813 0.023438-0.015625 0.046875-0.015625z"/>
  </symbol>
  <symbol id="q" overflow="visible">
   <path d="m0.17188-0.125c0-0.007812 0.003906-0.015625 0.015625-0.015625 0.007812-0.007813 0.019531-0.015625 0.03125-0.015625 0.007812 0 0.019531 0.007812 0.03125 0.015625 0.007812 0.011719 0.015625 0.027344 0.015625 0.046875v0.09375h-0.046875v-0.078125-0.015625c0-0.007812-0.007812-0.015625-0.015625-0.015625v-0.015625c-0.011719 0-0.023437 0.007812-0.03125 0.015625v0.03125 0.078125h-0.046875v-0.078125c0-0.019531-0.007812-0.03125-0.015625-0.03125 0-0.007813-0.007813-0.015625-0.015625-0.015625 0 0-0.0078125 0.007812-0.015625 0.015625v0.03125 0.078125h-0.0625v-0.15625h0.0625v0.03125c0-0.007812 0.0039062-0.015625 0.015625-0.015625 0.007812-0.007813 0.019531-0.015625 0.03125-0.015625 0.007812 0 0.015625 0.007812 0.015625 0.015625 0.007813 0 0.019531 0.007813 0.03125 0.015625z"/>
  </symbol>
  <symbol id="p" overflow="visible">
   <path d="m0.17188-0.09375v0.09375h-0.046875v-0.0625-0.03125-0.015625h-0.015625v-0.015625c-0.011719 0-0.023438 0.007812-0.03125 0.015625v0.03125 0.078125h-0.0625v-0.21875h0.0625v0.09375c0-0.007812 0.0039062-0.015625 0.015625-0.015625 0.007812-0.007813 0.019531-0.015625 0.03125-0.015625 0.019531 0 0.03125 0.007812 0.03125 0.015625 0.007812 0.011719 0.015625 0.027344 0.015625 0.046875z"/>
  </symbol>
  <symbol id="o" overflow="visible">
   <path d="m0.03125-0.20312h0.046875l0.078125 0.14062v-0.14062h0.046875v0.20312h-0.046875l-0.078125-0.14062v0.14062h-0.046875z"/>
  </symbol>
  <symbol id="n" overflow="visible">
   <path d="m0.015625-0.0625v-0.09375h0.046875v0.015625 0.03125 0.03125 0.03125h0.015625v0.015625h0.015625c0.007812 0 0.015625-0.0039062 0.015625-0.015625 0.007813-0.0078125 0.015625-0.019531 0.015625-0.03125v-0.078125h0.046875v0.15625h-0.046875v-0.015625c-0.011719 0-0.023438 0.0078125-0.03125 0.015625h-0.015625c-0.023438 0-0.039062-0.0039062-0.046875-0.015625-0.011719-0.0078125-0.015625-0.023438-0.015625-0.046875z"/>
  </symbol>
  <symbol id="m" overflow="visible">
   <path d="m0.17188-0.09375v0.09375h-0.046875v-0.0625-0.03125-0.015625h-0.015625v-0.015625c-0.011719 0-0.023438 0.007812-0.03125 0.015625v0.03125 0.078125h-0.0625v-0.15625h0.0625v0.03125c0-0.007812 0.0039062-0.015625 0.015625-0.015625 0.007812-0.007813 0.019531-0.015625 0.03125-0.015625 0.019531 0 0.03125 0.007812 0.03125 0.015625 0.007812 0.011719 0.015625 0.027344 0.015625 0.046875z"/>
  </symbol>
  <symbol id="l" overflow="visible">
   <path d="m0.03125-0.20312h0.078125c0.03125 0 0.050781 0.007813 0.0625 0.015625 0.007813 0.011719 0.015625 0.027344 0.015625 0.046875 0 0.023437-0.007812 0.042969-0.015625 0.0625-0.011719 0.011719-0.03125 0.015625-0.0625 0.015625h-0.03125v0.0625h-0.046875zm0.046875 0.03125v0.0625h0.03125 0.015625c0.007812-0.007813 0.015625-0.019531 0.015625-0.03125 0-0.007813-0.007813-0.015625-0.015625-0.015625 0-0.007812-0.007812-0.015625-0.015625-0.015625z"/>
  </symbol>
  <symbol id="k" overflow="visible">
   <path d="m0.015625-0.15625h0.0625v0.15625c0 0.019531-0.0078125 0.035156-0.015625 0.046875-0.011719 0.0078125-0.027344 0.015625-0.046875 0.015625h-0.03125v-0.03125h0.015625c0.0078125 0 0.015625-0.0078125 0.015625-0.015625v-0.015625zm0-0.0625h0.0625v0.046875h-0.0625z"/>
  </symbol>
  <symbol id="j" overflow="visible">
   <path d="m0.15625-0.15625v0.046875h-0.03125c0-0.007813-0.007812-0.015625-0.015625-0.015625-0.011719 0-0.023438 0.007812-0.03125 0.015625-0.011719 0.011719-0.015625 0.023438-0.015625 0.03125 0 0.011719 0.0039062 0.023438 0.015625 0.03125 0.0078125 0.011719 0.019531 0.015625 0.03125 0.015625h0.015625c0.007812-0.0078125 0.019531-0.015625 0.03125-0.015625v0.046875h-0.03125-0.03125c-0.023438 0-0.042969-0.0039062-0.0625-0.015625-0.011719-0.019531-0.015625-0.039062-0.015625-0.0625 0-0.019531 0.0039062-0.035156 0.015625-0.046875 0.019531-0.019531 0.039062-0.03125 0.0625-0.03125h0.03125 0.03125z"/>
  </symbol>
 </defs>
 <g>
  <path d="m224.95 201.49c55.215-5.4883 84.223 47.434 106.79 89.77 66.137-70.953 133.22-120.79 229.15-143.81 10.246-2.4062 16.742 10.527 8.9023 17.305l-85.793 74.367c3.0234 13.16 4.6484 26.824 4.6484 40.879 0 49.953-20.273 95.199-53.031 127.96-32.703 32.762-77.953 52.977-127.96 52.977-49.953 0-95.199-20.215-127.9-52.977-32.762-32.762-53.031-78.008-53.031-127.96s20.273-95.199 53.031-127.96c32.703-32.762 77.953-52.977 127.9-52.977 50.008 0 95.258 20.215 127.96 52.977 4.4258 4.4258 8.5664 9.0156 12.543 13.887l-10.305 11.648c-4.0898-5.1523-8.457-10.023-13.047-14.672-30.016-29.961-71.398-48.496-117.15-48.496-45.695 0-87.137 18.535-117.1 48.496-29.961 29.961-48.496 71.344-48.496 117.1s18.535 87.137 48.496 117.1c29.961 29.961 71.398 48.496 117.1 48.496 45.754 0 87.137-18.535 117.15-48.496 29.961-29.961 48.496-71.344 48.496-117.1 0-10.023-0.89453-19.824-2.6328-29.344l-136.53 118.33c-4.1992 3.6406-10.527 3.1914-14.113-1.0078-30.855-35.953-74.09-108.59-102.87-150.81-4.4258-6.4961 0.11328-15.289 7.7852-15.68zm90.047 100.91c-16.855-31.586-37.688-70.672-69.551-79.406l84.113 123.48 191.8-166.27c-75.266 27.609-130.82 75.879-184.07 134.57-10.023 12.098-18.312-4.8711-22.289-12.375z"/>
  <use x="70" y="560.839844" xlink:href="#t"/>
  <use x="70.207031" y="560.839844" xlink:href="#c"/>
  <use x="70.34375" y="560.839844" xlink:href="#b"/>
  <use x="70.535156" y="560.839844" xlink:href="#f"/>
  <use x="70.722656" y="560.839844" xlink:href="#d"/>
  <use x="70.855469" y="560.839844" xlink:href="#b"/>
  <use x="71.046875" y="560.839844" xlink:href="#i"/>
  <use x="71.34375" y="560.839844" xlink:href="#e"/>
  <use x="71.542969" y="560.839844" xlink:href="#h"/>
  <use x="71.824219" y="560.839844" xlink:href="#g"/>
  <use x="72.023438" y="560.839844" xlink:href="#c"/>
  <use x="72.164062" y="560.839844" xlink:href="#f"/>
  <use x="72.351562" y="560.839844" xlink:href="#e"/>
  <use x="72.550781" y="560.839844" xlink:href="#a"/>
  <use x="72.746094" y="560.839844" xlink:href="#s"/>
  <use x="73.003906" y="560.839844" xlink:href="#a"/>
  <use x="70" y="561.121094" xlink:href="#r"/>
  <use x="70.121094" y="561.121094" xlink:href="#c"/>
  <use x="70.261719" y="561.121094" xlink:href="#a"/>
  <use x="70.453125" y="561.121094" xlink:href="#q"/>
  <use x="70.839844" y="561.121094" xlink:href="#d"/>
  <use x="70.976562" y="561.121094" xlink:href="#p"/>
  <use x="71.175781" y="561.121094" xlink:href="#b"/>
  <use x="71.460938" y="561.121094" xlink:href="#o"/>
  <use x="71.695312" y="561.121094" xlink:href="#a"/>
  <use x="71.890625" y="561.121094" xlink:href="#n"/>
  <use x="72.089844" y="561.121094" xlink:href="#m"/>
  <use x="72.386719" y="561.121094" xlink:href="#l"/>
  <use x="72.589844" y="561.121094" xlink:href="#c"/>
  <use x="72.726562" y="561.121094" xlink:href="#a"/>
  <use x="72.921875" y="561.121094" xlink:href="#k"/>
  <use x="73.015625" y="561.121094" xlink:href="#b"/>
  <use x="73.207031" y="561.121094" xlink:href="#j"/>
  <use x="73.371094" y="561.121094" xlink:href="#d"/>
 </g>
</svg>
