<?xml version="1.0" encoding="UTF-8"?>
<svg width="700pt" height="700pt" version="1.1" viewBox="0 0 700 700" xmlns="http://www.w3.org/2000/svg" xmlns:xlink="http://www.w3.org/1999/xlink">
 <defs>
  <symbol id="o" overflow="visible">
   <path d="m29.312-1.75c-1.5117 0.78125-3.0898 1.3711-4.7344 1.7656-1.6367 0.40625-3.3398 0.60938-5.1094 0.60938-5.3125 0-9.5273-1.4844-12.641-4.4531-3.1055-2.9688-4.6562-7-4.6562-12.094s1.5508-9.125 4.6562-12.094c3.1133-2.9688 7.3281-4.4531 12.641-4.4531 1.7695 0 3.4727 0.19922 5.1094 0.59375 1.6445 0.39844 3.2227 0.99219 4.7344 1.7812v6.5938c-1.5312-1.0391-3.0391-1.8008-4.5156-2.2812-1.4805-0.48828-3.0391-0.73438-4.6719-0.73438-2.9375 0-5.2461 0.94531-6.9219 2.8281-1.6797 1.875-2.5156 4.4648-2.5156 7.7656 0 3.293 0.83594 5.8828 2.5156 7.7656 1.6758 1.875 3.9844 2.8125 6.9219 2.8125 1.6328 0 3.1914-0.23828 4.6719-0.71875 1.4766-0.48828 2.9844-1.2539 4.5156-2.2969z"/>
  </symbol>
  <symbol id="c" overflow="visible">
   <path d="m21.453-17.406c-0.67969-0.3125-1.3516-0.53906-2.0156-0.6875-0.65625-0.15625-1.3203-0.23438-1.9844-0.23438-1.9688 0-3.4844 0.63281-4.5469 1.8906-1.0547 1.2617-1.5781 3.0703-1.5781 5.4219v11.016h-7.6562v-23.922h7.6562v3.9219c0.97656-1.5625 2.1016-2.7031 3.375-3.4219 1.2812-0.71875 2.8125-1.0781 4.5938-1.0781 0.25 0 0.52344 0.011719 0.82812 0.03125 0.30078 0.023438 0.73438 0.070312 1.2969 0.14062z"/>
  </symbol>
  <symbol id="b" overflow="visible">
   <path d="m27.562-12.031v2.1875h-17.891c0.1875 1.793 0.83203 3.1367 1.9375 4.0312 1.1133 0.89844 2.6719 1.3438 4.6719 1.3438 1.6016 0 3.25-0.23438 4.9375-0.70312 1.6875-0.47656 3.4219-1.2031 5.2031-2.1719v5.8906c-1.8047 0.6875-3.6094 1.2031-5.4219 1.5469-1.8125 0.35156-3.6211 0.53125-5.4219 0.53125-4.3359 0-7.7031-1.0977-10.109-3.2969-2.3984-2.207-3.5938-5.2969-3.5938-9.2656 0-3.9062 1.1758-6.9727 3.5312-9.2031 2.3633-2.2383 5.6094-3.3594 9.7344-3.3594 3.7578 0 6.7695 1.1367 9.0312 3.4062 2.2578 2.2617 3.3906 5.2812 3.3906 9.0625zm-7.8594-2.5312c0-1.457-0.42969-2.6289-1.2812-3.5156-0.84375-0.89453-1.9492-1.3438-3.3125-1.3438-1.4922 0-2.6992 0.41797-3.625 1.25-0.91797 0.83594-1.4922 2.0391-1.7188 3.6094z"/>
  </symbol>
  <symbol id="a" overflow="visible">
   <path d="m14.391-10.766c-1.5938 0-2.793 0.27344-3.5938 0.8125-0.80469 0.54297-1.2031 1.3398-1.2031 2.3906 0 0.96875 0.32031 1.7305 0.96875 2.2812 0.64453 0.54297 1.5469 0.8125 2.7031 0.8125 1.4375 0 2.6445-0.51562 3.625-1.5469 0.98828-1.0312 1.4844-2.3203 1.4844-3.875v-0.875zm11.688-2.8906v13.656h-7.7031v-3.5469c-1.0312 1.4492-2.1875 2.5078-3.4688 3.1719s-2.8398 1-4.6719 1c-2.4805 0-4.4961-0.72266-6.0469-2.1719-1.543-1.4453-2.3125-3.3203-2.3125-5.625 0-2.8125 0.96094-4.8672 2.8906-6.1719 1.9375-1.3125 4.9688-1.9688 9.0938-1.9688h4.5156v-0.60938c0-1.207-0.48047-2.0938-1.4375-2.6562-0.94922-0.5625-2.4375-0.84375-4.4688-0.84375-1.6367 0-3.1562 0.16797-4.5625 0.5-1.4062 0.32422-2.7188 0.8125-3.9375 1.4688v-5.8281c1.6445-0.40625 3.2891-0.70703 4.9375-0.90625 1.6562-0.20703 3.3047-0.3125 4.9531-0.3125 4.3203 0 7.4375 0.85547 9.3438 2.5625 1.9141 1.6992 2.875 4.4609 2.875 8.2812z"/>
  </symbol>
  <symbol id="i" overflow="visible">
   <path d="m12.031-30.719v6.7969h7.875v5.4688h-7.875v10.141c0 1.1172 0.21875 1.8711 0.65625 2.2656 0.4375 0.38672 1.3125 0.57812 2.625 0.57812h3.9375v5.4688h-6.5625c-3.0234 0-5.1641-0.62891-6.4219-1.8906-1.2617-1.2578-1.8906-3.3984-1.8906-6.4219v-10.141h-3.7969v-5.4688h3.7969v-6.7969z"/>
  </symbol>
  <symbol id="h" overflow="visible">
   <path d="m19.953-20.422v-12.812h7.6875v33.234h-7.6875v-3.4531c-1.0547 1.4062-2.2148 2.4375-3.4844 3.0938-1.2734 0.65625-2.7422 0.98438-4.4062 0.98438-2.9492 0-5.3711-1.1719-7.2656-3.5156-1.8867-2.3438-2.8281-5.3594-2.8281-9.0469s0.94141-6.7031 2.8281-9.0469c1.8945-2.3438 4.3164-3.5156 7.2656-3.5156 1.6562 0 3.1172 0.33594 4.3906 1 1.2812 0.65625 2.4453 1.6836 3.5 3.0781zm-5.0469 15.484c1.6445 0 2.8945-0.59766 3.75-1.7969 0.86328-1.1953 1.2969-2.9297 1.2969-5.2031 0-2.2812-0.43359-4.0195-1.2969-5.2188-0.85547-1.1953-2.1055-1.7969-3.75-1.7969-1.625 0-2.8711 0.60156-3.7344 1.7969-0.85547 1.1992-1.2812 2.9375-1.2812 5.2188 0 2.2734 0.42578 4.0078 1.2812 5.2031 0.86328 1.1992 2.1094 1.7969 3.7344 1.7969z"/>
  </symbol>
  <symbol id="g" overflow="visible">
   <path d="m16.406-4.9375c1.6328 0 2.8828-0.59766 3.75-1.7969 0.86328-1.1953 1.2969-2.9297 1.2969-5.2031 0-2.2812-0.43359-4.0195-1.2969-5.2188-0.86719-1.1953-2.1172-1.7969-3.75-1.7969-1.6367 0-2.8906 0.60547-3.7656 1.8125-0.875 1.1992-1.3125 2.9336-1.3125 5.2031 0 2.2617 0.4375 3.9961 1.3125 5.2031 0.875 1.1992 2.1289 1.7969 3.7656 1.7969zm-5.0781-15.484c1.0508-1.3945 2.2188-2.4219 3.5-3.0781 1.2812-0.66406 2.7539-1 4.4219-1 2.9453 0 5.3672 1.1719 7.2656 3.5156 1.8945 2.3438 2.8438 5.3594 2.8438 9.0469s-0.94922 6.7031-2.8438 9.0469c-1.8984 2.3438-4.3203 3.5156-7.2656 3.5156-1.668 0-3.1406-0.33594-4.4219-1s-2.4492-1.6914-3.5-3.0781v3.4531h-7.6562v-33.234h7.6562z"/>
  </symbol>
  <symbol id="f" overflow="visible">
   <path d="m0.53125-23.922h7.6562l6.4219 16.234 5.4688-16.234h7.6562l-10.062 26.188c-1.0117 2.6641-2.1953 4.5234-3.5469 5.5781-1.3438 1.0625-3.1211 1.5938-5.3281 1.5938h-4.4219v-5.0156h2.3906c1.3008 0 2.2422-0.21094 2.8281-0.625 0.59375-0.40625 1.0547-1.1484 1.3906-2.2188l0.20312-0.65625z"/>
  </symbol>
  <symbol id="e" overflow="visible">
   <path d="m1.2969-31.891h7.8906l5.5156 23.172 5.4688-23.172h7.9219l5.4688 23.172 5.5156-23.172h7.8125l-7.5156 31.891h-9.4844l-5.7969-24.25-5.7188 24.25h-9.4844z"/>
  </symbol>
  <symbol id="n" overflow="visible">
   <path d="m3.4219-9.3125v-14.609h7.6875v2.3906c0 1.293-0.011719 2.918-0.03125 4.875-0.011719 1.9609-0.015625 3.2656-0.015625 3.9219 0 1.9297 0.046875 3.3125 0.14062 4.1562 0.10156 0.84375 0.28125 1.4609 0.53125 1.8438 0.3125 0.5 0.71875 0.88672 1.2188 1.1562 0.50781 0.27344 1.0938 0.40625 1.75 0.40625 1.5938 0 2.8438-0.60938 3.75-1.8281 0.91406-1.2266 1.375-2.9297 1.375-5.1094v-11.812h7.6406v23.922h-7.6406v-3.4531c-1.1562 1.3867-2.3828 2.4141-3.6719 3.0781-1.2812 0.66406-2.6992 1-4.25 1-2.7734 0-4.8828-0.84766-6.3281-2.5469-1.4375-1.6953-2.1562-4.1602-2.1562-7.3906z"/>
  </symbol>
  <symbol id="d" overflow="visible">
   <path d="m27.734-14.562v14.562h-7.7031v-11.156c0-2.0625-0.046875-3.4844-0.14062-4.2656-0.085937-0.78125-0.24219-1.3594-0.46875-1.7344-0.30469-0.5-0.71094-0.88281-1.2188-1.1562-0.51172-0.28125-1.0938-0.42188-1.75-0.42188-1.5938 0-2.8516 0.61719-3.7656 1.8438-0.90625 1.2305-1.3594 2.9375-1.3594 5.125v11.766h-7.6562v-23.922h7.6562v3.5c1.1445-1.3945 2.3633-2.4219 3.6562-3.0781 1.3008-0.66406 2.7383-1 4.3125-1 2.7578 0 4.8516 0.85156 6.2812 2.5469 1.4375 1.6875 2.1562 4.1523 2.1562 7.3906z"/>
  </symbol>
  <symbol id="m" overflow="visible">
   <path d="m3.6719-33.234h7.6562v18.094l8.7969-8.7812h8.8906l-11.688 10.969 12.594 12.953h-9.2656l-9.3281-9.9688v9.9688h-7.6562z"/>
  </symbol>
  <symbol id="l" overflow="visible">
   <path d="m4.0156-31.891h8.2188v31.891h-8.2188z"/>
  </symbol>
  <symbol id="k" overflow="visible">
   <path d="m23-23.172v6.2344c-1.0312-0.71875-2.0742-1.2422-3.125-1.5781-1.043-0.34375-2.125-0.51562-3.25-0.51562-2.1367 0-3.8047 0.625-5 1.875-1.1875 1.2422-1.7812 2.9805-1.7812 5.2188 0 2.2305 0.59375 3.9688 1.7812 5.2188 1.1953 1.25 2.8633 1.875 5 1.875 1.1953 0 2.332-0.17578 3.4062-0.53125 1.0703-0.36328 2.0625-0.89453 2.9688-1.5938v6.2656c-1.1875 0.4375-2.4023 0.76562-3.6406 0.98438-1.2305 0.22656-2.4648 0.34375-3.7031 0.34375-4.3125 0-7.6875-1.1094-10.125-3.3281s-3.6562-5.2969-3.6562-9.2344c0-3.9453 1.2188-7.0234 3.6562-9.2344 2.4375-2.2188 5.8125-3.3281 10.125-3.3281 1.25 0 2.4844 0.10938 3.7031 0.32812s2.4297 0.55469 3.6406 1z"/>
  </symbol>
  <symbol id="j" overflow="visible">
   <path d="m15.062-19.031c-1.6992 0-2.9961 0.60938-3.8906 1.8281-0.88672 1.2188-1.3281 2.9766-1.3281 5.2656 0 2.293 0.44141 4.0469 1.3281 5.2656 0.89453 1.2188 2.1914 1.8281 3.8906 1.8281 1.6641 0 2.9375-0.60938 3.8125-1.8281 0.88281-1.2188 1.3281-2.9727 1.3281-5.2656 0-2.2891-0.44531-4.0469-1.3281-5.2656-0.875-1.2188-2.1484-1.8281-3.8125-1.8281zm0-5.4688c4.1133 0 7.3281 1.1094 9.6406 3.3281s3.4688 5.2969 3.4688 9.2344c0 3.9297-1.1562 7.0078-3.4688 9.2344-2.3125 2.2188-5.5273 3.3281-9.6406 3.3281-4.1367 0-7.3711-1.1094-9.7031-3.3281-2.3242-2.2266-3.4844-5.3047-3.4844-9.2344 0-3.9375 1.1602-7.0156 3.4844-9.2344 2.332-2.2188 5.5664-3.3281 9.7031-3.3281z"/>
  </symbol>
 </defs>
 <g>
  <path d="m403.48 370.18 46.094 13.598-0.55859 2.1523c-1.207 4.6211 1.5234 9.3477 6.125 10.625l25.672 7.1211c4.1484 15.699 14.191 29.875 30.047 37.242 10.219 4.7578 19.023 5.9648 26.496 5.1445 12.477-1.4023 21.648-8.5234 28.016-16.801 8.6992-11.305 11.883-24.605 11.883-24.605 1.1367-4.6914-1.7656-9.4336-6.457-10.551-4.6875-1.1406-9.4141 1.75-10.551 6.457 0 0-2.3633 9.7305-8.75 18.043-3.6953 4.793-8.8398 9.2578-16.082 10.062-4.8672 0.53906-10.52-0.52734-17.168-3.6055-17.43-8.1211-24.273-28.16-21.527-45.52 2.6445-16.73 14.805-31.168 36.402-29.363 34.473 2.8867 64.836 36.312 70.297 83.809 2.4844 21.523-10.273 34.734-28.246 41.473-20.246 7.5781-46.793 7.457-69.141 1.3828-38.188-10.359-56.211-44.695-59.781-52.273v-13.316c0-4.8281-3.9219-8.75-8.75-8.75s-8.75 3.9219-8.75 8.75v131.25h-70v-78.75c0-4.8281-3.9219-8.75-8.75-8.75h-105c-4.8281 0-8.75 3.9219-8.75 8.75v78.75h-61.25v-183.75c0-3.6055-2.2227-6.8594-5.582-8.1562-3.3789-1.3125-7.1914-0.40234-9.625 2.2578-40.023 43.855-61.371 132.09-63.387 189.65h-8.9062c-4.8281 0-8.75 3.9219-8.75 8.75s3.9219 8.75 8.75 8.75h490c4.8281 0 8.75-3.9219 8.75-8.75s-3.9219-8.75-8.75-8.75h-131.25v-85.926c11.602 14.246 29.609 30.207 55.195 37.152 25.812 7.0195 56.473 6.8789 79.871-1.8906 25.688-9.6055 43.031-29.082 39.496-59.848-6.5781-57.102-44.801-95.777-86.238-99.242-12.898-1.0859-23.609 1.6445-32.078 6.875l-30.137-8.3477c-2.2578-0.62891-4.6875-0.3125-6.7188 0.85937-2.0312 1.1719-3.5 3.1133-4.0938 5.3906v0.015624l-41.758-11.723c-0.19141-13.512-4.4258-27.125-12.16-39.953-15.945-26.441-46.973-49.598-86.277-60.5-39.305-10.902-77.855-7.0352-105.12 7.4219-19.32 10.238-33.145 25.742-38.5 45.062-5.3555 19.32-1.5039 39.727 9.7812 58.449 15.941 26.441 46.988 49.613 86.293 60.516 39.305 10.902 77.84 7.0156 105.11-7.4375 9.6953-5.1289 18.008-11.586 24.57-19.199zm-245.98 172.32c0-34.281 0-157.5 0.015625-157.52-27.543 44.168-41.945 111.28-43.609 157.52zm183.75 0v-70h-87.5v70zm-24.586-300.28c34.492 9.5703 62 29.484 75.984 52.672 8.6445 14.371 12.004 29.945 7.9102 44.75-4.1133 14.805-15.016 26.426-29.84 34.281-23.922 12.672-57.766 15.574-92.242 6.0195-34.492-9.5547-61.984-29.488-75.965-52.676-8.6641-14.348-12.023-29.941-7.9297-44.746 4.1133-14.805 15.016-26.426 29.84-34.281 23.922-12.672 57.766-15.574 92.242-6.0195zm171.43 111.58-11.832-3.2734-8.1523 31.465 10.566 2.9258c0.070313-2.7305 0.33594-5.4453 0.75391-8.1055 1.3125-8.3281 4.1992-16.238 8.6641-23.012zm-176.28-94.078c-27.668-7.6836-54.285-6.7031-72.695 0.60938-14.211 5.6719-23.82 15.141-27.109 27.023-3.3086 11.898 0.054687 24.953 9.3281 37.117 12.004 15.766 34.316 30.309 61.984 37.992 27.668 7.6641 54.285 6.7031 72.695-0.63281 14.211-5.668 23.816-15.117 27.125-27.02 3.2891-11.883-0.070312-24.953-9.3438-37.117-12.004-15.766-34.316-30.309-61.984-37.973zm105.86 83.668c-0.085937 0.3125-0.17578 0.62891-0.26172 0.92578-1.0156 3.6562-2.3281 7.1914-3.9375 10.57l40.477 11.934 3.2031-12.336zm-110.53-66.816c23.418 6.4922 42.578 18.375 52.746 31.727 5.5117 7.2266 8.3477 14.77 6.3867 21.84-1.957 7.0703-8.2773 12.059-16.727 15.438-15.578 6.1914-38.117 6.5078-61.551 0.015625-23.414-6.4922-42.574-18.375-52.742-31.711-5.4961-7.2422-8.3477-14.785-6.3906-21.855 1.9609-7.0703 8.2773-12.059 16.73-15.418 15.594-6.2148 38.133-6.5273 61.547-0.035157zm-158.39 20.93h-8.75v-96.25c0-77.191 22.836-123.41 54.426-150.13 31.289-26.461 70.715-33.617 103.07-33.617s71.785 7.1562 103.07 33.617c31.59 26.723 54.426 72.941 54.426 150.13v96.25h-8.75c-4.8281 0-8.75 3.9219-8.75 8.75s3.9219 8.75 8.75 8.75h17.5c4.8281 0 8.75-3.9219 8.75-8.75v-105c0-84.297-26.145-134.33-60.621-163.48-34.754-29.418-78.434-37.766-114.38-37.766s-79.625 8.3477-114.38 37.766c-34.477 29.156-60.621 79.188-60.621 163.48v105c0 4.8281 3.9219 8.75 8.75 8.75h17.5c4.8281 0 8.75-3.9219 8.75-8.75s-3.9219-8.75-8.75-8.75zm43.539-70 0.019532-45.238c38.641-8.3281 70.086-31.5 87.691-47.059v22.297c0 2.8867 1.418 5.582 3.7969 7.2109 2.3789 1.6445 5.4062 1.9922 8.1016 0.94531 34.145-13.18 58.172-35.719 71.156-50.383 11.496 34.965 31.605 56.312 39.445 63.664v57.312c0 4.8281 3.9219 8.75 8.75 8.75s8.75-3.9219 8.75-8.75v-61.25c0-2.6602-1.207-5.1641-3.2734-6.8242 0 0-30.836-25.043-41.176-73.746-0.73438-3.4453-3.4844-6.125-6.9492-6.7734-3.4805-0.66406-7 0.83984-8.9414 3.7969 0 0-21.613 32.812-62.16 52.676v-29.715c0-3.6406-2.2734-6.9102-5.6875-8.1875-3.4141-1.2773-7.2812-0.30078-9.6758 2.4648 0 0-41.844 48.32-99.98 57.664-4.2344 0.68359-7.3477 4.3398-7.3477 8.6445l-0.019532 52.5c0 4.8281 3.9219 8.75 8.75 8.75 4.832 0 8.75-3.9219 8.75-8.75zm148.96-35v8.75c0 4.8281 3.9219 8.75 8.75 8.75s8.75-3.9219 8.75-8.75v-8.75c0-4.8281-3.9219-8.75-8.75-8.75s-8.75 3.9219-8.75 8.75zm-105 0v8.75c0 4.8281 3.9219 8.75 8.75 8.75s8.75-3.9219 8.75-8.75v-8.75c0-4.8281-3.9219-8.75-8.75-8.75s-8.75 3.9219-8.75 8.75z" fill-rule="evenodd"/>
  <use x="70" y="691.25" xlink:href="#o"/>
  <use x="102.109375" y="691.25" xlink:href="#c"/>
  <use x="123.683594" y="691.25" xlink:href="#b"/>
  <use x="153.355469" y="691.25" xlink:href="#a"/>
  <use x="182.878906" y="691.25" xlink:href="#i"/>
  <use x="203.792969" y="691.25" xlink:href="#b"/>
  <use x="233.464844" y="691.25" xlink:href="#h"/>
  <use x="280.011719" y="691.25" xlink:href="#g"/>
  <use x="311.328125" y="691.25" xlink:href="#f"/>
  <use x="355.078125" y="691.25" xlink:href="#e"/>
  <use x="403.335937" y="691.25" xlink:href="#a"/>
  <use x="432.859375" y="691.25" xlink:href="#c"/>
  <use x="454.4375" y="691.25" xlink:href="#n"/>
  <use x="485.582031" y="691.25" xlink:href="#d"/>
  <use x="516.726562" y="691.25" xlink:href="#m"/>
  <use x="561.054688" y="691.25" xlink:href="#l"/>
  <use x="577.332031" y="691.25" xlink:href="#k"/>
  <use x="603.265625" y="691.25" xlink:href="#j"/>
  <use x="633.324219" y="691.25" xlink:href="#d"/>
 </g>
</svg>
