<?xml version="1.0" encoding="UTF-8"?>
<svg width="700pt" height="700pt" version="1.1" viewBox="0 0 700 700" xmlns="http://www.w3.org/2000/svg" xmlns:xlink="http://www.w3.org/1999/xlink">
 <defs>
  <symbol id="t" overflow="visible">
   <path d="m18.766-1.125c-0.96875 0.5-1.9805 0.875-3.0312 1.125-1.043 0.25781-2.1367 0.39062-3.2812 0.39062-3.3984 0-6.0898-0.94531-8.0781-2.8438-1.9922-1.9062-2.9844-4.4844-2.9844-7.7344 0-3.2578 0.99219-5.8359 2.9844-7.7344 1.9883-1.9062 4.6797-2.8594 8.0781-2.8594 1.1445 0 2.2383 0.13281 3.2812 0.39062 1.0508 0.25 2.0625 0.625 3.0312 1.125v4.2188c-0.98047-0.65625-1.9453-1.1406-2.8906-1.4531-0.94922-0.3125-1.9492-0.46875-3-0.46875-1.875 0-3.3516 0.60547-4.4219 1.8125-1.0742 1.1992-1.6094 2.8555-1.6094 4.9688 0 2.1055 0.53516 3.7617 1.6094 4.9688 1.0703 1.1992 2.5469 1.7969 4.4219 1.7969 1.0508 0 2.0508-0.14844 3-0.45312 0.94531-0.3125 1.9102-0.80078 2.8906-1.4688z"/>
  </symbol>
  <symbol id="d" overflow="visible">
   <path d="m13.734-11.141c-0.4375-0.19531-0.87109-0.34375-1.2969-0.4375-0.41797-0.10156-0.83984-0.15625-1.2656-0.15625-1.2617 0-2.2305 0.40625-2.9062 1.2188-0.67969 0.80469-1.0156 1.9531-1.0156 3.4531v7.0625h-4.8906v-15.312h4.8906v2.5156c0.625-1 1.3438-1.7266 2.1562-2.1875 0.82031-0.46875 1.8008-0.70312 2.9375-0.70312 0.16406 0 0.34375 0.011719 0.53125 0.03125 0.19531 0.011719 0.47656 0.039062 0.84375 0.078125z"/>
  </symbol>
  <symbol id="a" overflow="visible">
   <path d="m17.641-7.7031v1.4062h-11.453c0.125 1.1484 0.53906 2.0078 1.25 2.5781 0.70703 0.57422 1.7031 0.85938 2.9844 0.85938 1.0312 0 2.082-0.14844 3.1562-0.45312 1.082-0.3125 2.1914-0.77344 3.3281-1.3906v3.7656c-1.1562 0.4375-2.3125 0.76562-3.4688 0.98438-1.1562 0.22656-2.3125 0.34375-3.4688 0.34375-2.7734 0-4.9297-0.70312-6.4688-2.1094-1.5312-1.4062-2.2969-3.3789-2.2969-5.9219 0-2.5 0.75391-4.4609 2.2656-5.8906 1.5078-1.4375 3.582-2.1562 6.2188-2.1562 2.4062 0 4.332 0.73047 5.7812 2.1875 1.4453 1.4492 2.1719 3.3828 2.1719 5.7969zm-5.0312-1.625c0-0.92578-0.27344-1.6719-0.8125-2.2344-0.54297-0.57031-1.25-0.85938-2.125-0.85938-0.94922 0-1.7188 0.26562-2.3125 0.79688s-0.96484 1.2969-1.1094 2.2969z"/>
  </symbol>
  <symbol id="l" overflow="visible">
   <path d="m9.2188-6.8906c-1.0234 0-1.793 0.17188-2.3125 0.51562-0.51172 0.34375-0.76562 0.85547-0.76562 1.5312 0 0.625 0.20703 1.1172 0.625 1.4688 0.41406 0.34375 0.98828 0.51562 1.7188 0.51562 0.92578 0 1.7031-0.32812 2.3281-0.98438 0.63281-0.66406 0.95312-1.4922 0.95312-2.4844v-0.5625zm7.4688-1.8438v8.7344h-4.9219v-2.2656c-0.65625 0.92969-1.3984 1.6055-2.2188 2.0312-0.82422 0.41406-1.8242 0.625-3 0.625-1.5859 0-2.8711-0.45703-3.8594-1.375-0.99219-0.92578-1.4844-2.1289-1.4844-3.6094 0-1.7891 0.61328-3.1016 1.8438-3.9375 1.2383-0.84375 3.1797-1.2656 5.8281-1.2656h2.8906v-0.39062c0-0.76953-0.30859-1.332-0.92188-1.6875-0.61719-0.36328-1.5703-0.54688-2.8594-0.54688-1.0547 0-2.0312 0.10547-2.9375 0.3125-0.89844 0.21094-1.7305 0.52344-2.5 0.9375v-3.7344c1.0391-0.25 2.0859-0.44141 3.1406-0.57812 1.0625-0.13281 2.125-0.20312 3.1875-0.20312 2.7578 0 4.75 0.54688 5.9688 1.6406 1.2266 1.0859 1.8438 2.8555 1.8438 5.3125z"/>
  </symbol>
  <symbol id="c" overflow="visible">
   <path d="m7.7031-19.656v4.3438h5.0469v3.5h-5.0469v6.5c0 0.71094 0.14062 1.1875 0.42188 1.4375s0.83594 0.375 1.6719 0.375h2.5156v3.5h-4.1875c-1.9375 0-3.3125-0.39844-4.125-1.2031-0.80469-0.8125-1.2031-2.1797-1.2031-4.1094v-6.5h-2.4219v-3.5h2.4219v-4.3438z"/>
  </symbol>
  <symbol id="k" overflow="visible">
   <path d="m12.766-13.078v-8.2031h4.9219v21.281h-4.9219v-2.2188c-0.66797 0.90625-1.4062 1.5703-2.2188 1.9844s-1.7578 0.625-2.8281 0.625c-1.8867 0-3.4336-0.75-4.6406-2.25-1.2109-1.5-1.8125-3.4258-1.8125-5.7812 0-2.3633 0.60156-4.2969 1.8125-5.7969 1.207-1.5 2.7539-2.25 4.6406-2.25 1.0625 0 2 0.21484 2.8125 0.64062 0.82031 0.42969 1.5664 1.0859 2.2344 1.9688zm-3.2188 9.9219c1.0391 0 1.8359-0.37891 2.3906-1.1406 0.55078-0.76953 0.82812-1.8828 0.82812-3.3438 0-1.457-0.27734-2.5664-0.82812-3.3281-0.55469-0.76953-1.3516-1.1562-2.3906-1.1562-1.043 0-1.8398 0.38672-2.3906 1.1562-0.55469 0.76172-0.82812 1.8711-0.82812 3.3281 0 1.4609 0.27344 2.5742 0.82812 3.3438 0.55078 0.76172 1.3477 1.1406 2.3906 1.1406z"/>
  </symbol>
  <symbol id="j" overflow="visible">
   <path d="m10.5-3.1562c1.0508 0 1.8516-0.37891 2.4062-1.1406 0.55078-0.76953 0.82812-1.8828 0.82812-3.3438 0-1.457-0.27734-2.5664-0.82812-3.3281-0.55469-0.76953-1.3555-1.1562-2.4062-1.1562-1.0547 0-1.8594 0.38672-2.4219 1.1562-0.55469 0.77344-0.82812 1.8828-0.82812 3.3281 0 1.4492 0.27344 2.5586 0.82812 3.3281 0.5625 0.77344 1.3672 1.1562 2.4219 1.1562zm-3.25-9.9219c0.67578-0.88281 1.4219-1.5391 2.2344-1.9688 0.82031-0.42578 1.7656-0.64062 2.8281-0.64062 1.8945 0 3.4453 0.75 4.6562 2.25 1.207 1.5 1.8125 3.4336 1.8125 5.7969 0 2.3555-0.60547 4.2812-1.8125 5.7812-1.2109 1.5-2.7617 2.25-4.6562 2.25-1.0625 0-2.0078-0.21094-2.8281-0.625-0.8125-0.42578-1.5586-1.0859-2.2344-1.9844v2.2188h-4.8906v-21.281h4.8906z"/>
  </symbol>
  <symbol id="e" overflow="visible">
   <path d="m0.34375-15.312h4.8906l4.125 10.391 3.5-10.391h4.8906l-6.4375 16.766c-0.64844 1.6953-1.4023 2.8828-2.2656 3.5625-0.86719 0.6875-2 1.0312-3.4062 1.0312h-2.8438v-3.2188h1.5312c0.83203 0 1.4375-0.13672 1.8125-0.40625 0.38281-0.26172 0.67969-0.73047 0.89062-1.4062l0.14062-0.42188z"/>
  </symbol>
  <symbol id="i" overflow="visible">
   <path d="m2.3594-15.312h4.8906v15.312h-4.8906zm0-5.9688h4.8906v4h-4.8906z"/>
  </symbol>
  <symbol id="h" overflow="visible">
   <path d="m14.719-14.828v3.9844c-0.65625-0.45703-1.3242-0.79688-2-1.0156-0.66797-0.21875-1.3594-0.32812-2.0781-0.32812-1.3672 0-2.4336 0.40234-3.2031 1.2031-0.76172 0.79297-1.1406 1.9062-1.1406 3.3438 0 1.4297 0.37891 2.543 1.1406 3.3438 0.76953 0.79297 1.8359 1.1875 3.2031 1.1875 0.75781 0 1.4844-0.10938 2.1719-0.32812 0.6875-0.22656 1.3203-0.56641 1.9062-1.0156v4c-0.76172 0.28125-1.5391 0.48828-2.3281 0.625-0.78125 0.14453-1.5742 0.21875-2.375 0.21875-2.7617 0-4.9219-0.70703-6.4844-2.125-1.5547-1.4141-2.3281-3.3828-2.3281-5.9062 0-2.5312 0.77344-4.5039 2.3281-5.9219 1.5625-1.4141 3.7227-2.125 6.4844-2.125 0.80078 0 1.5938 0.074219 2.375 0.21875 0.78125 0.13672 1.5547 0.35156 2.3281 0.64062z"/>
  </symbol>
  <symbol id="b" overflow="visible">
   <path d="m9.6406-12.188c-1.0859 0-1.9141 0.39062-2.4844 1.1719-0.57422 0.78125-0.85938 1.9062-0.85938 3.375s0.28516 2.5938 0.85938 3.375c0.57031 0.77344 1.3984 1.1562 2.4844 1.1562 1.0625 0 1.875-0.38281 2.4375-1.1562 0.57031-0.78125 0.85938-1.9062 0.85938-3.375s-0.28906-2.5938-0.85938-3.375c-0.5625-0.78125-1.375-1.1719-2.4375-1.1719zm0-3.5c2.6328 0 4.6914 0.71484 6.1719 2.1406 1.4766 1.418 2.2188 3.3867 2.2188 5.9062 0 2.5117-0.74219 4.4805-2.2188 5.9062-1.4805 1.418-3.5391 2.125-6.1719 2.125-2.6484 0-4.7148-0.70703-6.2031-2.125-1.4922-1.4258-2.2344-3.3945-2.2344-5.9062 0-2.5195 0.74219-4.4883 2.2344-5.9062 1.4883-1.4258 3.5547-2.1406 6.2031-2.1406z"/>
  </symbol>
  <symbol id="g" overflow="visible">
   <path d="m17.75-9.3281v9.3281h-4.9219v-7.1406c0-1.3203-0.03125-2.2344-0.09375-2.7344s-0.16797-0.86719-0.3125-1.1094c-0.1875-0.3125-0.44922-0.55469-0.78125-0.73438-0.32422-0.17578-0.69531-0.26562-1.1094-0.26562-1.0234 0-1.8242 0.39844-2.4062 1.1875-0.58594 0.78125-0.875 1.8711-0.875 3.2656v7.5312h-4.8906v-15.312h4.8906v2.2344c0.73828-0.88281 1.5195-1.5391 2.3438-1.9688 0.83203-0.42578 1.75-0.64062 2.75-0.64062 1.7695 0 3.1133 0.54688 4.0312 1.6406 0.91406 1.0859 1.375 2.6562 1.375 4.7188z"/>
  </symbol>
  <symbol id="s" overflow="visible">
   <path d="m10.312-16.078-5.7656 8.5469h5.7656zm-0.875-4.3281h5.8438v12.875h2.9219v3.8125h-2.9219v3.7188h-4.9688v-3.7188h-9.0469v-4.5156z"/>
  </symbol>
  <symbol id="f" overflow="visible">
   <path d="m2.1875-5.9688v-9.3438h4.9219v1.5312c0 0.83594-0.007813 1.875-0.015625 3.125-0.011719 1.25-0.015625 2.0859-0.015625 2.5 0 1.2422 0.03125 2.1328 0.09375 2.6719 0.070313 0.54297 0.17969 0.93359 0.32812 1.1719 0.20703 0.32422 0.47266 0.57422 0.79688 0.75 0.32031 0.16797 0.69141 0.25 1.1094 0.25 1.0195 0 1.8203-0.39062 2.4062-1.1719 0.58203-0.78125 0.875-1.8672 0.875-3.2656v-7.5625h4.8906v15.312h-4.8906v-2.2188c-0.74219 0.89844-1.5234 1.5586-2.3438 1.9844-0.82422 0.41406-1.7344 0.625-2.7344 0.625-1.7617 0-3.1055-0.53906-4.0312-1.625-0.92969-1.082-1.3906-2.6602-1.3906-4.7344z"/>
  </symbol>
  <symbol id="r" overflow="visible">
   <path d="m12.422-21.281v3.2188h-2.7031c-0.6875 0-1.1719 0.125-1.4531 0.375-0.27344 0.25-0.40625 0.6875-0.40625 1.3125v1.0625h4.1875v3.5h-4.1875v11.812h-4.8906v-11.812h-2.4375v-3.5h2.4375v-1.0625c0-1.6641 0.46094-2.8984 1.3906-3.7031 0.92578-0.80078 2.3672-1.2031 4.3281-1.2031z"/>
  </symbol>
  <symbol id="q" overflow="visible">
   <path d="m16.547-12.766c0.61328-0.94531 1.3477-1.6719 2.2031-2.1719 0.85156-0.5 1.7891-0.75 2.8125-0.75 1.7578 0 3.0977 0.54688 4.0156 1.6406 0.92578 1.0859 1.3906 2.6562 1.3906 4.7188v9.3281h-4.9219v-7.9844-0.35938c0.007813-0.13281 0.015625-0.32031 0.015625-0.5625 0-1.082-0.16406-1.8633-0.48438-2.3438-0.3125-0.48828-0.82422-0.73438-1.5312-0.73438-0.92969 0-1.6484 0.38672-2.1562 1.1562-0.51172 0.76172-0.77344 1.8672-0.78125 3.3125v7.5156h-4.9219v-7.9844c0-1.6953-0.14844-2.7852-0.4375-3.2656-0.29297-0.48828-0.8125-0.73438-1.5625-0.73438-0.9375 0-1.6641 0.38672-2.1719 1.1562-0.51172 0.76172-0.76562 1.8594-0.76562 3.2969v7.5312h-4.9219v-15.312h4.9219v2.2344c0.60156-0.86328 1.2891-1.5156 2.0625-1.9531 0.78125-0.4375 1.6406-0.65625 2.5781-0.65625 1.0625 0 2 0.25781 2.8125 0.76562 0.8125 0.51172 1.4258 1.2305 1.8438 2.1562z"/>
  </symbol>
  <symbol id="p" overflow="visible">
   <path d="m17.75-9.3281v9.3281h-4.9219v-7.1094c0-1.3438-0.03125-2.2656-0.09375-2.7656s-0.16797-0.86719-0.3125-1.1094c-0.1875-0.3125-0.44922-0.55469-0.78125-0.73438-0.32422-0.17578-0.69531-0.26562-1.1094-0.26562-1.0234 0-1.8242 0.39844-2.4062 1.1875-0.58594 0.78125-0.875 1.8711-0.875 3.2656v7.5312h-4.8906v-21.281h4.8906v8.2031c0.73828-0.88281 1.5195-1.5391 2.3438-1.9688 0.83203-0.42578 1.75-0.64062 2.75-0.64062 1.7695 0 3.1133 0.54688 4.0312 1.6406 0.91406 1.0859 1.375 2.6562 1.375 4.7188z"/>
  </symbol>
  <symbol id="o" overflow="visible">
   <path d="m2.5781-20.406h5.875l7.4219 14v-14h4.9844v20.406h-5.875l-7.4219-14v14h-4.9844z"/>
  </symbol>
  <symbol id="n" overflow="visible">
   <path d="m2.5781-20.406h8.7344c2.5938 0 4.582 0.57812 5.9688 1.7344 1.3945 1.1484 2.0938 2.7891 2.0938 4.9219 0 2.1367-0.69922 3.7812-2.0938 4.9375-1.3867 1.1562-3.375 1.7344-5.9688 1.7344h-3.4844v7.0781h-5.25zm5.25 3.8125v5.7031h2.9219c1.0195 0 1.8047-0.25 2.3594-0.75 0.5625-0.5 0.84375-1.2031 0.84375-2.1094 0-0.91406-0.28125-1.6172-0.84375-2.1094-0.55469-0.48828-1.3398-0.73438-2.3594-0.73438z"/>
  </symbol>
  <symbol id="m" overflow="visible">
   <path d="m2.3594-15.312h4.8906v15.031c0 2.0508-0.49609 3.6172-1.4844 4.7031-0.98047 1.082-2.4062 1.625-4.2812 1.625h-2.4219v-3.2188h0.85938c0.92578 0 1.5625-0.21094 1.9062-0.625 0.35156-0.41797 0.53125-1.2461 0.53125-2.4844zm0-5.9688h4.8906v4h-4.8906z"/>
  </symbol>
 </defs>
 <g>
  <path d="m535 226.34c-7.5586-1.8047-15.203-2.7227-22.719-2.7227-30.727 0-54.992 15.176-60.379 37.762-1.332 5.5898-1.3711 11.258-0.34766 16.832h-14.418c28.352-46.777 34.027-107.36-14.633-148.42-44.656-37.684-111.07-42.785-154.5-11.867-44.191 31.457-62.195 77.422-51.062 127.96-10.82-3.6172-23.18-5.6719-36.434-5.6719-43.508 0-77.582 21.867-77.582 49.789 0 27.91 34.074 49.789 77.582 49.789 40.863 0 73.395-19.305 77.191-44.789h200.48c9.7617 16.07 28.543 29.539 52.051 35.152 7.5586 1.8047 15.199 2.7109 22.715 2.7109 30.734 0 54.996-15.172 60.379-37.754 6.8164-28.625-19.344-59.48-58.328-68.777zm-257.26-94.727c42.59-30.324 100.78-16.945 133.92 11.016 43.926 37.062 34.562 94.074 5.4258 135.57l-161.21 0.003906c-3.1797-8.6875-9.7812-16.414-18.922-22.602-16.328-49.602-1.9141-93.59 40.785-123.99zm-97.242 191.39c-32.949 0-60.781-15.102-60.781-32.988 0-17.887 27.832-32.988 60.781-32.988 32.945 0 60.777 15.109 60.777 32.988 0 17.879-27.832 32.988-60.777 32.988zm396.48-31.773c-3.543 14.867-21.242 24.852-44.039 24.852-6.1992 0-12.527-0.75781-18.805-2.25-29.473-7.0391-50.484-29.27-45.879-48.547 3.5508-14.867 21.246-24.859 44.031-24.859 6.1992 0 12.531 0.76172 18.816 2.2617 29.465 7.0234 50.473 29.258 45.875 48.543zm-276.91-101.05c0-6.2383 6.2539-11.277 13.961-11.277 7.7109 0 13.965 5.0391 13.965 11.277 0 6.2344-6.2539 11.285-13.965 11.285-7.6992 0.003906-13.961-5.0508-13.961-11.285zm70.254 0c0-6.2383 6.2539-11.277 13.957-11.277 7.7109 0 13.973 5.0391 13.973 11.277 0 6.2344-6.2617 11.285-13.973 11.285-7.7031 0.003906-13.957-5.0508-13.957-11.285zm218.05 207.08c0 1.5391-1.2617 2.8008-2.8008 2.8008h-8.457l-6.3672 11.484c0.023438 0.26172 0.10156 0.50781 0.10156 0.77734 0 5.0117-3.8242 9.2188-9.082 10.723l7.2227 6.4453c1.1484 1.0312 1.2539 2.8008 0.21875 3.9492-0.55469 0.62109-1.3086 0.94141-2.082 0.94141-0.66797 0-1.3281-0.24219-1.8633-0.71094l-11.922-10.629c-3.2266-0.93359-5.8867-2.8906-7.4609-5.4375-0.96875 2.0898-2.918 3.7461-5.3711 4.5586l3.3828 11.246c0.44922 1.4883-0.39062 3.0391-1.875 3.4883-0.26953 0.085938-0.53906 0.11719-0.80469 0.11719-1.2109 0-2.3203-0.78516-2.6836-1.9922l-3.7812-12.59c-1.3438-0.30078-2.5664-0.84375-3.6172-1.5859-2.3086 2.8828-6.1758 4.7773-10.562 4.7773-0.70703 0-1.3828-0.085938-2.0625-0.16797l-5.8125 7.8164c-0.55469 0.73828-1.3945 1.1211-2.2383 1.1211-0.58203 0-1.1719-0.17188-1.6758-0.54688-1.2422-0.92969-1.5078-2.6836-0.58203-3.9258l4.8008-6.4453c-2.1094-1.3281-3.6953-3.1992-4.5469-5.3711l-7.8281 2.0703c-0.24609 0.066406-0.48828 0.09375-0.71875 0.09375-1.25 0-2.3789-0.82422-2.7031-2.082-0.39062-1.4961 0.5-3.0312 1.9805-3.4219l8.8477-2.3398c1.2266-4.957 6.3672-8.6875 12.527-8.6875 4.3906 0 8.2617 1.8945 10.562 4.7695 1.6367-1.1602 3.7031-1.8828 5.9805-1.8828 3.0781 0 5.7852 1.2812 7.5039 3.2383 1.082-4.1289 4.8008-7.375 9.5664-8.457l1.2422-10.73c0.14063-1.2383 1.082-2.2188 2.3086-2.4414l8.2305-1.4102c1.5391-0.25391 2.9688 0.76563 3.2305 2.2852 0.26172 1.5195-0.76562 2.9727-2.2773 3.2383l-6.1641 1.0547-0.89453 7.7773c3.2266 0.48047 6.0156 1.9727 8.0039 4.0586l5.1641-9.3125c0.49219-0.89062 1.4336-1.4492 2.4531-1.4492h10.109c1.5469-0.015625 2.7969 1.2383 2.7969 2.7852zm-94.242 5.0586c0 1.5469-1.2617 2.8008-2.8008 2.8008h-7.0664l-5.6328 10.16v0.023437c0 4.1758-3.0781 7.7266-7.3789 9.1328l6.0312 5.3945c1.1602 1.0312 1.2617 2.8008 0.23047 3.9531-0.55859 0.61719-1.3164 0.93359-2.0898 0.93359-0.66797 0-1.3281-0.23438-1.8633-0.71094l-10.613-9.457c-0.0625-0.0625-0.085938-0.125-0.13281-0.18359-2.4648-0.86719-4.4648-2.4805-5.7109-4.4844-0.78516 1.6953-2.3203 3.0625-4.2656 3.7969l2.918 9.7227c0.44922 1.4766-0.38672 3.0391-1.875 3.4766-0.26953 0.089844-0.53906 0.11719-0.80469 0.11719-1.2031 0-2.3203-0.78906-2.6836-1.9883l-3.3281-11.09c-0.99219-0.27344-1.8867-0.69922-2.6758-1.2617-1.9805 2.4805-5.3203 4.1172-9.1172 4.1172-0.44922 0-0.87891-0.074219-1.3164-0.11719l-5.1523 6.9219c-0.55859 0.74609-1.3945 1.1328-2.2461 1.1328-0.58203 0-1.1719-0.17969-1.668-0.55469-1.2422-0.92969-1.5078-2.6836-0.58203-3.9141l4.1328-5.5625c-1.5391-1.0547-2.7539-2.4375-3.4648-4.0547l-6.793 1.8047c-0.24219 0.066407-0.48047 0.09375-0.71875 0.09375-1.2422 0-2.375-0.82422-2.6992-2.082-0.39062-1.5 0.5-3.0312 1.9805-3.4219l7.8867-2.0898c1.25-4.0469 5.5117-7.0508 10.641-7.0508 3.7852 0 7.1172 1.6289 9.1094 4.1055 1.4062-0.99609 3.1875-1.6172 5.1641-1.6172 2.6484 0 4.9844 1.0938 6.457 2.7773 0.84375-3.2148 3.5508-5.8203 7.0938-6.9766l1.043-9.5586c0.12891-1.2383 1.0625-2.2305 2.2891-2.4531l7.0859-1.2695c1.4883-0.25391 2.9805 0.73828 3.2461 2.2617 0.27344 1.5195-0.73828 2.9688-2.2578 3.2461l-5.0195 0.89453-0.6875 6.3438c2.7773 0.34766 5.2148 1.5195 6.9727 3.2383l4.3906-7.9297c0.49219-0.88672 1.4336-1.4453 2.4531-1.4453h8.7188c1.5508 0.023437 2.8008 1.2656 2.8008 2.8242zm-90.887 0c0 1.5469-1.2539 2.8008-2.8008 2.8008h-7.0625l-5.6328 10.164v0.023438c0 4.1836-3.0781 7.7266-7.3867 9.1328l6.0352 5.3867c1.1523 1.0312 1.2539 2.8008 0.22266 3.9531-0.55469 0.61719-1.3164 0.93359-2.0898 0.93359-0.66016 0-1.3281-0.23438-1.8633-0.71094l-10.605-9.457c-0.066406-0.054688-0.09375-0.125-0.14062-0.18359-2.4688-0.875-4.4648-2.4805-5.7109-4.4844-0.78906 1.6953-2.3125 3.0625-4.2656 3.7969l2.918 9.7227c0.44922 1.4766-0.39062 3.0391-1.875 3.4766-0.26953 0.089844-0.54297 0.11719-0.8125 0.11719-1.2031 0-2.3203-0.78906-2.6836-1.9883l-3.3359-11.09c-0.98438-0.27344-1.8828-0.69922-2.6641-1.2617-1.9883 2.4805-5.3242 4.1172-9.1094 4.1172-0.45312 0-0.88672-0.074219-1.3203-0.11719l-5.1562 6.9258c-0.54688 0.73828-1.3945 1.125-2.2461 1.125-0.58203 0-1.1641-0.17969-1.6758-0.55469-1.2422-0.92969-1.5-2.6836-0.57812-3.9219l4.1328-5.5547c-1.5469-1.0547-2.7539-2.4453-3.4648-4.0547l-6.7891 1.8047c-0.24219 0.066406-0.48047 0.09375-0.71875 0.09375-1.2422 0-2.375-0.82422-2.7031-2.082-0.39844-1.5 0.49219-3.0312 1.9883-3.4219l7.8867-2.0898c1.25-4.0469 5.5117-7.0508 10.641-7.0508 3.7852 0 7.1172 1.6367 9.1055 4.1055 1.4062-0.99609 3.1914-1.6172 5.1641-1.6172 2.6484 0 4.9844 1.1016 6.4609 2.7773 0.82812-3.1797 3.4883-5.7695 6.9883-6.9453l1.418-9.7656c0.15234-1.0938 0.95312-1.9883 2.0117-2.2969l7.2812-2.0312c1.4961-0.42578 3.0352 0.46094 3.4453 1.9492 0.41406 1.4883-0.45312 3.0312-1.9414 3.4453l-5.5156 1.5391-0.95703 6.6094c2.793 0.33594 5.2539 1.5195 7.0234 3.2461l4.3906-7.9297c0.49219-0.89453 1.4336-1.4492 2.4531-1.4492h8.7148c1.5703 0.011719 2.8242 1.2539 2.8242 2.8125zm-91.762 5.6641-0.41406 11.188c-0.074218 0-5.5117-0.20703-13.707-0.089844l-0.15234-11.199c8.5664-0.12109 14.273 0.10156 14.273 0.10156zm-117.01 77.172 0.66797 11.176c-1.4219 0.09375-2.8906 0.14453-4.3945 0.19531-1.0117 0.035156-2.0039 0.050781-3.0117 0.050781-6.3906 0-13.344-0.59766-20.664-1.793l1.793-11.059c7.7852 1.2695 14.973 1.8242 21.539 1.6055 1.375-0.042969 2.7422-0.10938 4.0703-0.17578zm-60.879-11.016c8.0742 3.0625 16.734 5.6953 25.039 7.582l-2.4961 10.914c-8.7812-2.0117-17.961-4.7812-26.504-8.043zm86.336-1.2578 10.949 2.3398c-2.2695 10.652-10.23 17.125-24.348 19.762l-2.0664-11.004c12.023-2.2461 14.562-6.875 15.465-11.098zm5.543-29.734c2.9336 7.4414 4.7656 13.793 5.5703 19.402l-11.082 1.6016c-0.67578-4.6758-2.3281-10.359-4.9062-16.895-1.1133-2.8242-1.6797-5.5938-1.6797-8.2617 0-0.77734 0.042969-1.5625 0.14062-2.3516l11.109 1.4219c-0.039062 0.29688-0.066406 0.58984-0.054687 0.89453 0.007812 1.2852 0.30469 2.6758 0.90234 4.1875zm22.367-30.504 2.3672 10.949c-13.125 2.8438-19.305 6.418-22.18 8.9258l-7.3516-8.4453c5.6953-4.9727 14.582-8.7109 27.164-11.43zm38.41-4.4297 0.5 11.188c-9.6602 0.42187-18.508 1.2266-26.293 2.3633l-1.625-11.082c8.1602-1.2031 17.383-2.0312 27.418-2.4688zm-173.86 55.715c2.5742 1.7852 6.6367 3.9805 11.43 6.1602l-4.6406 10.191c-5.4648-2.4805-10.012-4.957-13.164-7.1406z"/>
  <use x="70" y="644" xlink:href="#t"/>
  <use x="90.550781" y="644" xlink:href="#d"/>
  <use x="104.359375" y="644" xlink:href="#a"/>
  <use x="123.347656" y="644" xlink:href="#l"/>
  <use x="142.242188" y="644" xlink:href="#c"/>
  <use x="155.628906" y="644" xlink:href="#a"/>
  <use x="174.617188" y="644" xlink:href="#k"/>
  <use x="204.410156" y="644" xlink:href="#j"/>
  <use x="224.453125" y="644" xlink:href="#e"/>
  <use x="252.453125" y="644" xlink:href="#i"/>
  <use x="262.046875" y="644" xlink:href="#h"/>
  <use x="278.648438" y="644" xlink:href="#b"/>
  <use x="297.882812" y="644" xlink:href="#g"/>
  <use x="317.816406" y="644" xlink:href="#s"/>
  <use x="337.296875" y="644" xlink:href="#e"/>
  <use x="355.550781" y="644" xlink:href="#f"/>
  <use x="70" y="672" xlink:href="#r"/>
  <use x="82.183594" y="672" xlink:href="#d"/>
  <use x="95.992188" y="672" xlink:href="#b"/>
  <use x="115.226562" y="672" xlink:href="#q"/>
  <use x="154.152344" y="672" xlink:href="#c"/>
  <use x="167.535156" y="672" xlink:href="#p"/>
  <use x="187.46875" y="672" xlink:href="#a"/>
  <use x="216.207031" y="672" xlink:href="#o"/>
  <use x="239.640625" y="672" xlink:href="#b"/>
  <use x="258.878906" y="672" xlink:href="#f"/>
  <use x="278.8125" y="672" xlink:href="#g"/>
  <use x="308.492188" y="672" xlink:href="#n"/>
  <use x="329.015625" y="672" xlink:href="#d"/>
  <use x="342.820312" y="672" xlink:href="#b"/>
  <use x="362.058594" y="672" xlink:href="#m"/>
  <use x="371.65625" y="672" xlink:href="#a"/>
  <use x="390.648438" y="672" xlink:href="#h"/>
  <use x="407.242188" y="672" xlink:href="#c"/>
 </g>
</svg>
